<svg xmlns="http://www.w3.org/2000/svg" width="25.669" height="20.85" viewBox="0 0 25.669 20.85"><g transform="translate(0)"><g transform="translate(0 0)"><path d="M25.67,59.908a10.516,10.516,0,0,1-3.024.829,5.288,5.288,0,0,0,2.315-2.911A10.616,10.616,0,0,1,21.615,59.1a5.27,5.27,0,0,0-8.973,4.8A14.95,14.95,0,0,1,1.789,58.4a5.272,5.272,0,0,0,1.63,7.029,5.266,5.266,0,0,1-2.385-.661v.066A5.271,5.271,0,0,0,5.257,70a5.334,5.334,0,0,1-1.387.184,5.054,5.054,0,0,1-.991-.1A5.268,5.268,0,0,0,7.8,73.744a10.565,10.565,0,0,1-6.539,2.25A11.192,11.192,0,0,1,0,75.922a14.884,14.884,0,0,0,8.071,2.369A14.878,14.878,0,0,0,23.054,63.31l-.018-.682A10.515,10.515,0,0,0,25.67,59.908Z" transform="translate(-0.001 -57.441)" fill="#292929"/></g></g></svg>