<svg xmlns="http://www.w3.org/2000/svg" width="23.795" height="23.208" viewBox="0 0 23.795 23.208"><path d="M11.9,0A11.9,11.9,0,0,0,8.137,23.187c.594.11.786-.259.786-.572V20.4c-3.309.72-4-1.4-4-1.4A3.151,3.151,0,0,0,3.6,17.255c-1.08-.739.082-.723.082-.723a2.5,2.5,0,0,1,1.823,1.226,2.533,2.533,0,0,0,3.462.988,2.524,2.524,0,0,1,.755-1.59c-2.642-.3-5.42-1.323-5.42-5.88A4.6,4.6,0,0,1,5.531,8.083a4.279,4.279,0,0,1,.116-3.149s1-.319,3.273,1.219a11.277,11.277,0,0,1,5.958,0c2.271-1.539,3.269-1.219,3.269-1.219a4.275,4.275,0,0,1,.117,3.149,4.592,4.592,0,0,1,1.224,3.193c0,4.57-2.783,5.576-5.432,5.87a2.844,2.844,0,0,1,.816,2.2v3.265c0,.316.19.688.794.571A11.9,11.9,0,0,0,11.9,0Z" fill="#292929"/></svg>